#!OML:ASF F:\VICON\USERDATA\INSTALL\rory3\rory3.ASF
:FULLY-SPECIFIED
:DEGREES
90
root 0.22120130958061301 17.676895445569173 3.7750696944346043 1.2887428537142411 -1.1639958579143135 -2.8252293547690397
lfemur -15.456745869544855 -1.0932880107294514 -19.05229696486839
ltibia 38.600003372185064
lfoot -6.380228620833794 -1.7910780848920034
ltoes -8.791777154499355
rfemur -13.234755707399101 2.8687945123458416 27.356521432009817
rtibia 52.343769168062764
rfoot -7.030709693161468 -5.521877262982553
rtoes 1.9646026819995066
lowerback 12.97335762944549 0.9669834657187047 1.471351837365583
upperback -0.16180751945021596 1.4819123448096607 1.2775301295731487
thorax -7.309196946152216 0.7284947200204821 0.3336078202518861
lowerneck -18.17892194845437 -3.570664433849478 -1.8378078209602955
upperneck 16.232926021664454 -4.788786046951062 2.430429121132869
head 8.17463817060238 -2.158924160682235 0.5206586369679611
lclavicle -8.106918611986194e-16 -6.936096066798656e-16
lhumerus -36.987063351123155 -3.740772143134845 87.61430675998986
lradius 62.45589202561434
lwrist 16.00981631797706
lhand -28.159898464708387 12.887142337811687
lfingers 7.125020000000057
lthumb -1.5400801490378 42.85366713286571
rclavicle -8.1069186119862e-16 -6.93609606679866e-16
rhumerus -37.49731459214541 -3.3802854964181326 -88.35204287328972
rradius 63.4506555336939
rwrist -6.624340193623259
rhand -18.36324962141947 33.463981542500214
rfingers 7.125020000000057
rthumb 7.920191912989753 -1.5356500813342069
91
root 0.25160460551530334 17.687729339819942 5.310774876000328 1.2305609389732282 -1.386492299767145 -2.8415518550445293
lfemur -16.11228485161631 -1.3491176413518131 -19.072005846453617
ltibia 36.97596702744138
lfoot -6.276547079779093 -1.784818604733836
ltoes -8.171786817509073
rfemur -11.25334757288251 3.058643446196068 27.448621426131044
rtibia 50.92111991515154
rfoot -4.9253363973415425 -5.186655268279599
rtoes 1.9294151088630693
lowerback 12.72618563186127 1.1220743772041257 1.7042122031778733
upperback -0.20886380763588108 1.7121660951208608 1.2086218326615845
thorax -7.206004866602234 0.8316140175229296 0.09145121458505967
lowerneck -18.082332243720202 -3.6223464256903757 -1.855194535820779
upperneck 16.403926988933236 -4.855429450775161 2.3979937403572515
head 8.217882444877674 -2.1936788718590394 0.5048799992900178
lclavicle -7.919896825361714e-16 -6.790072425763041e-16
lhumerus -37.77772969551503 -3.040217871817276 87.28353451368646
lradius 61.43276057205666
lwrist 15.50276609085686
lhand -28.242312380964833 12.91218397428122
lfingers 7.125020000000057
lthumb -1.6196407064399236 42.881727498614175
rclavicle -7.919896825361712e-16 -6.790072425763044e-16
rhumerus -36.8285721089721 -3.1603973374509735 -88.38717173445853
rradius 63.47718393113431
rwrist -6.9135244882373
rhand -18.218739044634262 33.11024044715881
rfingers 7.125020000000057
rthumb 8.059656925134428 -1.6375589635697008
92
root 0.26730357763655127 17.692692183755472 6.375842479422438 1.0869324181458957 -1.813967660011396 -3.13656793891755
lfemur -16.622875778331764 -1.606966930558431 -18.542461194207345
ltibia 35.85450960059901
lfoot -5.651154788030612 -1.6117880746015554
ltoes -8.184831617213813
rfemur -9.738291798013089 3.285333987258748 27.945267654321256
rtibia 50.06304513176716
rfoot -4.341854577487339 -4.581093456568494
rtoes 2.6433310062626254
lowerback 12.514164184921414 1.2424355989571891 2.0864489677533147
upperback -0.21163186565670652 1.9201227786083004 1.2316246251099257
thorax -7.079361560606563 0.9234577711998588 -0.12284429570235234
lowerneck -17.99935644457316 -3.5931405858127117 -1.8251285274819304
upperneck 16.648254684925412 -4.80921527963894 2.2689475970252215
head 8.277321428817062 -2.1807694891826084 0.4594772642115796
lclavicle -8.074062774489834e-16 -6.909836585346515e-16
lhumerus -38.11456164635547 -1.8795053120766796 86.79288273705755
lradius 59.098662961714396
lwrist 14.738058861310016
lhand -28.345633374747155 13.159627416767032
lfingers 7.125020000000057
lthumb -1.7194100792904574 43.12944559771334
rclavicle -8.074062774489842e-16 -6.909836585346522e-16
rhumerus -35.99835395864615 -3.5165360728888677 -88.07968986790057
rradius 62.121113313439146
rwrist -6.714617771409914
rhand -18.146466727507 32.85472874773913
rfingers 7.125020000000057
rthumb 8.129354802767121 -1.8068425799894525
93
root 0.2912135485396714 17.683367797411897 7.365384629282945 0.8789534771357845 -2.140909278084588 -3.3750902515426886
lfemur -17.852781275598925 -1.7923165400440857 -18.066915874430812
ltibia 34.40879794854813
lfoot -5.644214583598252 -1.2401698040268503
ltoes -7.769737305744707
rfemur -7.271771419395713 3.5161381320079994 28.32553902912969
rtibia 49.86976640677433
rfoot -3.550006850091618 -4.271773202793787
rtoes 3.524003844170697
lowerback 12.308611836322024 1.452194182981136 2.4678782141482936
upperback -0.19704439138184016 2.24780725434772 1.2155670925063211
thorax -6.927563737184269 1.0703430850284636 -0.4220215967420101
lowerneck -17.89973922303968 -3.6135600485931474 -1.7855124212716447
upperneck 16.92412122009891 -4.837787942095474 2.1661801968248966
head 8.349611782704944 -2.2012507580726237 0.4139856910001699
lclavicle -7.904128495672357e-16 -6.778861459702043e-16
lhumerus -38.83666643678137 -0.6483933467738412 86.32556585632194
lradius 56.33508867415883
lwrist 13.81306840851685
lhand -28.432457505412767 13.564572754584585
lfingers 7.125020000000057
lthumb -1.8032449249936815 43.53662670799651
rclavicle -7.904128495672355e-16 -6.778861459702044e-16
rhumerus -34.47960668373765 -3.714935261048859 -87.80337692380908
rradius 60.522028029818635
rwrist -6.509875665724934
rhand -18.11912087935073 32.68291202891937
rfingers 7.125020000000057
rthumb 8.155831822938252 -2.122332929199871
94
root 0.2879484662430921 17.678846462676045 7.472826099839099 0.7989736240754525 -2.380511848948853 -3.581254870440781
lfemur -18.516385875108774 -1.8880053313603486 -17.628986017235704
ltibia 33.99548523067069
lfoot -5.047791826548913 -1.168652795312977
ltoes -7.857656277176427
rfemur -6.229518842705668 3.6227642785250946 28.67018786984941
rtibia 50.435084791724904
rfoot -3.8107991453395194 -4.012888437071085
rtoes 4.4807441747156505
lowerback 12.298651711549134 1.5657095978774471 2.7234719185518963
upperback -0.1815489911424997 2.4409918130626083 1.2282908283337957
thorax -6.907239713247012 1.1550982600898054 -0.5968271224351996
lowerneck -17.925663032691624 -3.622283677468041 -1.7327610183009012
upperneck 17.00937694599886 -4.852979198936208 2.098090637167349
head 8.379163188334672 -2.2118615118956955 0.3828689504436939
lclavicle -8.051990325473893e-16 -6.893287849365347e-16
lhumerus -39.4810460569082 -0.04032571670519003 86.2407983207298
lradius 55.670901029690945
lwrist 13.64580390349258
lhand -28.451733067325527 13.577054443693092
lfingers 7.125020000000057
lthumb -1.821858898632172 43.5458780379592
rclavicle -8.051990325473899e-16 -6.893287849365348e-16
rhumerus -33.783105236256 -3.5937915183633398 -87.82681510054596
rradius 60.419990419592345
rwrist -6.528981295294961
rhand -18.185422692328164 32.55453681299621
rfingers 7.125020000000057
rthumb 8.091874144905104 -2.1788048774958626
95
root 0.2717847195085302 17.6588623838402 6.140995909670538 0.8824224952217598 -2.3401097629671663 -3.586556906900454
lfemur -18.632431789400723 -1.7068251509292853 -17.532071283827193
ltibia 35.04791954809144
lfoot -4.976090601889957 -1.1787036695411732
ltoes -8.049459841251359
rfemur -6.876187714515831 3.4841172389081585 28.68688404789584
rtibia 52.647425748386716
rfoot -5.017423371078179 -4.12700452708091
rtoes 4.489732079015567
lowerback 12.563005282803202 1.5548843961038878 2.6708522922362126
upperback -0.15666663802537117 2.4312435086693363 1.2413199131745412
thorax -7.0330133272661906 1.149863850061068 -0.5451258083439342
lowerneck -18.072265442370686 -3.635161036306135 -1.6990721769861516
upperneck 16.828018197275554 -4.87581318193931 2.136128354149252
head 8.345320855930455 -2.218884563396562 0.3873293615602721
lclavicle -7.771616913172809e-16 -6.677035293475384e-16
lhumerus -39.775853203216954 -0.4046664207588089 86.66682280824037
lradius 57.35930632421169
lwrist 14.222621391193123
lhand -28.336501453517652 13.296176072683835
lfingers 7.125020000000057
lthumb -1.7105877436745633 43.26272881599997
rclavicle -7.771616913172809e-16 -6.677035293475385e-16
rhumerus -33.91495786787124 -3.131433962509825 -88.12182558364682
rradius 61.88190860076814
rwrist -6.706001641711364
rhand -18.329780547598084 32.82977249213307
rfingers 7.125020000000057
rthumb 7.952597229979185 -2.0403336858132626
96
root 0.2424842793966375 17.608727152290992 3.0108257058532004 1.3298010585367064 -1.953366498395028 -3.2425143635580413
lfemur -18.536851981043117 -1.2020177778629184 -18.002240361636627
ltibia 37.43819715537337
lfoot -6.1099586062083855 -1.0210283883109126
ltoes -8.343891906784426
rfemur -9.127650345538733 3.01821446411237 28.231682966141484
rtibia 56.400227110562
rfoot -6.608572931012963 -4.6687599553308194
rtoes 3.4877491086519163
lowerback 13.213366385198059 1.4660981836147686 2.225626409188629
upperback -0.13107392684165892 2.2582444202410357 1.1834796730074113
thorax -7.374531142759101 1.0764161111998065 -0.310861973971455
lowerneck -18.396291388231802 -3.7164680252720674 -1.6944987641103633
upperneck 16.120502086640318 -5.006327847382807 2.3975217183898163
head 8.179445865884803 -2.2599428767966994 0.45986740127401304
lclavicle -6.899369880643076e-16 -6.002783057094582e-16
lhumerus -39.94577933555046 -2.2252423400918495 87.91726148083814
lradius 63.18200787960769
lwrist 16.10209034578874
lhand -28.119521146896382 12.258816166856072
lfingers 7.125020000000058
lthumb -1.5010756503503262 42.22201805831717
rclavicle -6.899369880643081e-16 -6.002783057094582e-16
rhumerus -35.14361674714164 -1.3370537674150116 -89.32649671465494
rradius 66.64018584334329
rwrist -7.708992686867847
rhand -18.557285841014473 33.625662313666645
rfingers 7.125020000000058
rthumb 7.73312345431387 -1.3750691883281094
